<?xml version="1.0" encoding="utf-8"?>
<!-- Generator: Adobe Illustrator 22.1.0, SVG Export Plug-In . SVG Version: 6.00 Build 0)  -->
<svg version="1.1" id="Layer_2" xmlns="http://www.w3.org/2000/svg" xmlns:xlink="http://www.w3.org/1999/xlink" x="0px" y="0px"
	 viewBox="0 0 339.4 141.7" style="enable-background:new 0 0 339.4 141.7;" xml:space="preserve">
<style type="text/css">
	.st0{fill:#FFE030;}
</style>
<path class="st0" d="M235.2,93.2c0-0.1-0.1-0.2-0.2-0.3c0,0,0-0.1-0.1-0.1c-0.1-0.1-0.3-0.2-0.4-0.2c-0.4,0-0.6,0.3-0.6,0.7v11.9
	c0,0.9-0.3,1.2-1.2,1.2h-5.4c-0.9,0-1.2-0.4-1.2-1.2V71.8c0-0.9,0.3-1.2,1.2-1.2h3.2c0.8,0,1.6,0.1,2,0.9c0.3,0.5,0.5,1.1,0.8,1.7
	c1.3,2.8,2.6,5.7,3.8,8.5c0.3,0.7,0.6,1.4,0.9,2.1c0.1,0.2,0.1,0.3,0.3,0.5c0.1,0.1,0.2,0.2,0.4,0.2c0.4,0,0.6-0.3,0.6-0.7V71.8
	c0-0.9,0.3-1.2,1.2-1.2h5.4c0.9,0,1.2,0.4,1.2,1.2v33.4c0,0.9-0.3,1.2-1.2,1.2h-3.2c-1.2,0-1.8-0.2-2.3-1.4c0,0,0-0.1-0.1-0.1
	C238.7,101,236.9,97.1,235.2,93.2 M160.4,98c0-0.9-0.3-1.2-1.2-1.2h-5.1c-0.8,0-1.1-0.3-1.2-1.1l0-24c0-0.9-0.3-1.2-1.2-1.2
	c-2,0-3.9,0-5.9,0c0,0,0,0-0.1,0c-0.9,0-1.2,0.4-1.2,1.2v33.5c0,0.9,0.3,1.2,1.2,1.2c1.5,0,3,0,4.5,0c3,0,5.9,0,8.9,0
	c0.9,0,1.2-0.4,1.2-1.2C160.4,102.8,160.4,100.4,160.4,98 M309.1,92.1c0.8,0,1.1-0.4,1.1-1.2v-4.8c0-0.8-0.3-1.2-1.1-1.2h-11.7
	c-0.8,0-1.1-0.4-1.1-1.2v-3.5c0-0.8,0.3-1.2,1.1-1.2h14.3c0.8,0,1.1-0.4,1.1-1.2v-6.2c0-0.8-0.3-1.2-1.1-1.2h-22.1
	c-0.8,0-1.1,0.4-1.1,1.2v33.5c0,0.8,0.3,1.2,1.1,1.2h22.1c0.8,0,1.1-0.4,1.1-1.2v-6.2c0-0.8-0.3-1.2-1.1-1.2h-14.3
	c-0.8,0-1.1-0.4-1.1-1.2v-3.4c0-0.8,0.3-1.2,1.1-1.2H309.1z M179.5,96.8h-5.1c-0.8,0-1.1-0.3-1.2-1.1l0-24c0-0.9-0.3-1.2-1.2-1.2
	c-2,0-4,0-5.9,0c-0.9,0-1.2,0.4-1.2,1.2v33.5c0,0.9,0.3,1.2,1.2,1.2c1.9,0,3.9,0,5.8,0c2.5,0,5,0,7.5,0c0.9,0,1.2-0.4,1.2-1.2
	c0-2.4,0-4.8,0-7.2C180.6,97.1,180.3,96.8,179.5,96.8 M192.6,70.5h-6.3c-0.9,0-1.2,0.4-1.2,1.2v33.4c0,0.9,0.3,1.2,1.2,1.2h6.3
	c0.9,0,1.2-0.4,1.2-1.2V71.8C193.8,70.9,193.4,70.5,192.6,70.5 M211.4,93.8c0.6,0,0.9-0.2,0.9-0.6c0-0.2-0.1-0.6-0.2-1
	c-0.4-1.9-0.9-3.8-1.3-5.6c-0.1-0.4-0.2-1.1-0.8-1.1c-0.4,0-0.6,0.4-0.7,1.1c-0.5,1.9-0.9,3.8-1.3,5.6c-0.1,0.4-0.2,0.8-0.2,1
	c0,0.4,0.4,0.6,1,0.6C209.6,93.8,210.5,93.8,211.4,93.8 M222.6,104.9c0.1,0.3,0.1,0.4,0.1,0.6c0,0.5-0.3,0.9-1,0.9h-5.1
	c-1.4,0-1.9-0.2-2.2-1.4l-0.8-3.3c-0.3-1-0.6-1.2-1.5-1.2h-4.3c-0.9,0-1.3,0.2-1.5,1.2l-0.8,3.3c-0.3,1.3-0.7,1.4-2.2,1.4h-5.1
	c-0.7,0-1-0.3-1-0.9c0-0.2,0.1-0.4,0.1-0.6l8.4-33.1c0.3-1,0.7-1.2,1.5-1.2h5.2c0.9,0,1.3,0.3,1.5,1.2L222.6,104.9 M140.2,106.4
	h-6.8c-0.8-0.1-1.2-0.4-1.5-1l-1.2-3.1c-0.5-1.1-1.1-1.5-2.2-1.5h-8.8c-1.1,0-1.7,0.4-2.2,1.5l-1.2,3.1c-0.3,0.7-0.7,1-1.5,1H108
	c-0.9,0-1.2-0.7-0.9-1.5l12.5-32.8c0.4-1,0.9-1.6,1.8-1.6h5.3c0.9,0,1.4,0.6,1.8,1.6L139,99.5l2.1,5.4
	C141.4,105.7,141.1,106.4,140.2,106.4z M127.8,92l-2-5.5c-0.5-1.3-1.2-1.4-1.5-1.4s-1.1,0.1-1.5,1.4l-2,5.5c-0.3,0.9,0.1,1.4,1,1.4
	h5C127.7,93.4,128,92.9,127.8,92z M278.7,93.8c-0.3-0.1-0.5-0.2-0.8-0.2c-0.5,0-0.8,0.4-1.1,0.8c-1.9,2.5-4.8,3.9-8,3.9
	c-5.5,0-9.6-4.2-9.6-9.8c0-5.6,4.1-9.8,9.6-9.8c1.1,0,2.3,0.2,3.3,0.5c1.8,0.6,3.3,1.8,4.6,3.2c0.3,0.3,0.5,0.7,0.9,0.8
	c0.1,0,0.2,0.1,0.4,0c0.1,0,0.3,0,0.4-0.1c1-0.4,4.5-2.1,5.1-2.4c0.5-0.2,0.9-0.5,1-1.1c0-0.5-0.2-1-0.4-1.4
	c-1.4-2.7-3.8-4.8-6.5-6.3c-2.7-1.4-5.8-2.1-8.8-2.1c-10.4,0-17.9,7.8-17.9,18.5c0,10.7,7.5,18.5,17.9,18.5c2.3,0,4.6-0.4,6.7-1.2
	c2-0.7,3.8-1.8,5.4-3.2c0.8-0.8,1.5-1.4,2-2.2c0.6-0.8,1.3-1.7,1.5-2.6c0-0.2,0.1-0.4,0.1-0.5c0-0.4-0.3-0.8-0.7-0.9
	C282.8,95.7,279.4,94.1,278.7,93.8z M132.9,62.7l-5-8.5c-0.5-0.8-0.5-1.3,0-1.9c2-1.9,2.9-3.9,2.9-6.7c0-5.4-3.1-8.3-8.9-8.3h-8.1
	c-0.6,0-0.8,0.2-0.8,0.8V63c0,0.6,0.2,0.8,0.8,0.8h4.1c0.6,0,0.8-0.2,0.8-0.8v-7.1c0,0,0,0,0,0v-0.3c0-0.8,0.3-1.3,0.7-1.4
	c0.4-0.2,1,0.1,1.4,0.9l2.4,4.2v0l1.2,2.1l1.1,2c0.5,0.6,0.7,0.6,1.3,0.6h5.4C133,63.8,133.3,63.1,132.9,62.7z M125.1,45.8
	c0,1.5-1,2.3-2.2,2.3h-3.5c-0.6,0-0.8-0.3-0.8-0.9v-2.8c0-0.6,0.2-0.9,0.8-0.9h3.5C124.1,43.5,125.1,44.3,125.1,45.8z M199.7,63
	c0,0.6-0.2,0.9-0.8,0.9h-4.2c-0.6,0-0.8-0.3-0.8-0.9V38.2c0-0.6,0.2-0.9,0.8-0.9h11.9c0.6,0,0.8,0.3,0.8,0.9v5
	c0,0.6-0.2,0.9-0.8,0.9h-6c-0.6,0-0.8,0.2-0.8,0.8v1.8c0,0.6,0.2,0.8,0.8,0.8h5.1c0.6,0,0.8,0.3,0.8,0.9v4.2c0,0.6-0.2,0.9-0.8,0.9
	h-5.1c-0.6,0-0.8,0.2-0.8,0.8V63z M301.8,44.8c0-0.6-0.2-0.8-0.8-0.8h-3.2c-0.6,0-0.8-0.2-0.8-0.8v-5c0-0.6,0.2-0.8,0.8-0.8h13.8
	c0.6,0,0.8,0.2,0.8,0.8v5c0,0.6-0.2,0.8-0.8,0.8h-3.2c-0.6,0-0.8,0.2-0.8,0.8V63c0,0.6-0.2,0.8-0.8,0.8h-4.1c-0.6,0-0.8-0.2-0.8-0.8
	V44.8z M144.9,54.5c-0.7,0-1.3,0-2,0c-0.4,0-0.7-0.1-0.7-0.4c0-0.2,0-0.4,0.1-0.7c0.3-1.4,0.7-2.8,1-4.2c0.1-0.5,0.2-0.8,0.6-0.8
	c0.4,0,0.5,0.5,0.6,0.8c0.3,1.4,0.6,2.8,1,4.2c0.1,0.3,0.1,0.6,0.1,0.7C145.5,54.4,145.3,54.5,144.9,54.5 M153.2,62.7l-6.3-24.5
	c-0.2-0.7-0.5-0.9-1.1-0.9h-3.9c-0.6,0-0.9,0.2-1.1,0.9l-6.2,24.5c0,0.2-0.1,0.3-0.1,0.5c0,0.4,0.2,0.6,0.7,0.6h3.7
	c1.1,0,1.4-0.1,1.6-1.1l0.6-2.4c0.2-0.7,0.5-0.9,1.1-0.9h3.2c0.6,0,0.9,0.2,1.1,0.9l0.6,2.4c0.2,0.9,0.6,1.1,1.6,1.1h3.8
	c0.5,0,0.7-0.2,0.7-0.6C153.3,63.1,153.2,62.9,153.2,62.7 M264.8,53.3c-0.6,0-0.8,0.3-0.8,0.9v2.5c0,0.6,0.2,0.9,0.8,0.9h10.6
	c0.6,0,0.8,0.3,0.8,0.9V63c0,0.6-0.2,0.9-0.8,0.9H259c-0.6,0-0.8-0.3-0.8-0.9V38.2c0-0.6,0.2-0.9,0.8-0.9h16.3
	c0.6,0,0.8,0.3,0.8,0.9v4.6c0,0.6-0.2,0.9-0.8,0.9h-10.6c-0.6,0-0.8,0.3-0.8,0.9v2.6c0,0.6,0.2,0.9,0.8,0.9h8.6
	c0.6,0,0.8,0.3,0.8,0.9v3.6c0,0.6-0.2,0.9-0.8,0.9H264.8z M248.2,45.8c0,1.6-1.1,2.4-2.5,2.4h-0.3c0,0-0.1,0-0.1,0c0,0,0,0-0.1,0
	h-0.2c-0.6,0-0.8-0.3-0.8-0.9V47v-0.9v-0.7v-0.9v-0.3c0-0.6,0.2-0.9,0.8-0.9h0.2c0,0,0,0,0.1,0c0,0,0.1,0,0.1,0h0.3
	C247.1,43.4,248.2,44.3,248.2,45.8 M255,62.7L252,51.9c-0.1-0.3,0-0.5,0.2-0.8c0.8-1.3,1.8-2.9,1.8-5.5c0-5.6-3-8.2-8.7-8.2h-5.4
	c-0.6,0-0.8,0.2-0.8,0.8V63c0,0.6,0.2,0.8,0.8,0.8h4.2c0.5,0,0.7-0.2,0.8-0.5c0-2.7,0-5.4,0-8.1c0-0.4,0-0.5,0-0.9
	c0-0.8,1.1-0.7,1.4-0.5c0.4,0.2,0.6,0.6,0.7,1l2.1,8.2c0.2,0.7,0.5,0.9,1.3,0.9h3.7h0.4C255.2,63.8,255.2,63.2,255,62.7 M209.3,50.6
	c0-7.9,5.6-13.7,13.3-13.7c7.7,0,13.3,5.7,13.3,13.6c0,7.9-5.6,13.7-13.3,13.7C214.9,64.2,209.3,58.5,209.3,50.6 M215.5,50.5
	c0,4.1,3.1,7.3,7.1,7.3c4,0,7.1-3.1,7.1-7.2c0-4.1-3.1-7.2-7.1-7.2C218.5,43.4,215.5,46.4,215.5,50.5 M188.4,37.3
	c0.6,0,0.9,0.3,0.9,0.9v21.1v3.6c0,0.6-0.2,0.9-0.9,0.9c-0.8,0-1.7,0-2.5,0c-0.5,0-0.8-0.1-1.1-0.3c-0.1-0.1-0.2-0.2-0.3-0.3
	c-1.5-1.7-3-3.4-4.4-5.1c-1.6-1.9-3.3-3.8-4.9-5.6c-0.6-0.7-1.2-1.4-1.8-2.1c-0.4-0.5-1-0.3-1,0.4c0,4.1,0,8.2,0,12.3
	c0,0.6-0.2,0.9-0.9,0.9h-4c-0.6,0-0.9-0.3-0.9-0.9V38.2c0-0.6,0.2-0.9,0.9-0.9h2.5c0.5,0,0.8,0.1,1.1,0.3c0.1,0.1,0.2,0.2,0.3,0.3
	l11.2,12.9c0.4,0.5,1,0.3,1-0.4c0,0,0-4.3,0-4.3c0-2.7,0-5.3,0-8c0-0.6,0.2-0.9,0.9-0.9H188.4 M156.9,63.8h4.6
	c0.6,0,0.9-0.3,0.9-0.9V38.2c0-0.6-0.2-0.9-0.9-0.9h-4.6c-0.6,0-0.9,0.3-0.9,0.9v24.7C156.1,63.5,156.3,63.8,156.9,63.8 M287.9,47.7
	c3.4,0.3,7.5,2,7.5,8.1c0,5.3-3,8.4-8.1,8.4c0,0,0,0,0,0c-1.9,0-3.9-0.4-5.4-1.7c-1.8-1.5-2.5-4.1-2.4-6.4c0-0.2,0-0.5,0.1-0.7
	c0.1-0.1,0.2-0.2,0.3-0.3c0.1-0.1,0.3-0.1,0.4-0.1h4.1c0.4,0,0.6,0.1,0.7,0.5c0.1,0.2,0,0.4,0.1,0.6c0.1,0.6,0.4,1.1,0.9,1.4
	c1.4,0.9,3.4-0.1,3.4-1.8c0-0.9-0.4-2.1-2.1-2.3c-5.6-0.7-7.9-3-7.9-8.2c0-5.4,2.8-8.4,7.8-8.4c3.1,0,5.9,1.5,7.1,4.4
	c0.4,1,0.7,2.3,0.7,3.4c0,1-0.4,1.2-1,1.2h-3.8c-0.6,0-0.8-0.2-0.8-0.7c-0.1-1.2-0.9-2-2.2-2c-1.3,0-2.2,0.9-2.2,2.1
	C285.1,47.2,286.6,47.6,287.9,47.7 M57.3,46.3c4.9-4.9,6.9-9.9,7.2-12.2c0.3-2.4-0.2-3-0.6-4.5c-0.1-0.3-0.1-0.7-0.1-1
	c0.2-1.3,1.4-2.2,2.7-2c1.3,0.2,2.2,1.4,2,2.7c-0.1,0.4-0.2,0.7-0.4,1c-0.7,1.1-1.8,2.1-1.9,4.1c-0.1,1.4,1.4,2.2,2.6,1.1
	c3.1-2.8,3.7-4.8,4.2-5.9c0.1-0.3,0.3-0.6,0.6-0.9c1-0.9,2.5-0.9,3.4,0c0.9,0.9,0.9,2.5,0,3.4c-0.3,0.2-0.6,0.4-0.9,0.5
	c-1.1,0.5-2.9,1-5.9,4.2c-1.3,1.3-0.7,2.5,0.5,2.6c1.4,0.1,3.2-0.9,4.4-1.5c0.3-0.1,0.6-0.2,1-0.3c1.3-0.1,2.5,0.9,2.6,2.3
	c0.1,1.3-0.9,2.5-2.3,2.5c-0.4,0-0.7,0-1-0.2c-1.2-0.4-2.8-1.1-4.6-0.9c-4.1,0.2-7.8,3.4-8.1,5.4c-0.1,0.7,1.8,1,4.4,1.1
	c-2.8,1-5.6,2.2-8.3,3.5c-0.7-0.2-1.4-0.5-2-0.9C55.4,49.3,55.8,47.8,57.3,46.3 M33.6,55.3c-0.6-0.7-0.8-1.5-0.6-2.3
	c0.1-0.5,0.3-0.9,0.6-1.3c0.1-0.1,0.1-0.2,0.2-0.2c1.1-1.1,2.9-1.1,4.1,0c0.6,0.6,0.9,1.5,0.8,2.3c-0.1,0.3-0.1,0.6-0.2,0.8
	c-0.3,1.5-0.3,3,0,4.5l0,0c0.1,0.6,0.5,1.1,1,1.3c0.9,0.4,1.9,0,2.3-0.9l0,0c0-0.1,0.1-0.1,0.1-0.2c1.2-2.8,1.9-5.6,2-8.5
	c0-0.1,0-0.1,0-0.2c0-0.7,0.3-1.3,0.8-1.8c1.1-1.1,2.9-1.1,4.1,0c1.1,1.1,1.1,2.9,0,4.1l0,0c-2,2-3.7,4.4-5,7.1
	c-2.2,1.5-4.3,3.1-6.2,4.7c0-0.3,0-0.5,0-0.8c-0.1-3-1.3-5.9-3.5-8c-0.1-0.1-0.2-0.2-0.3-0.3C33.7,55.5,33.7,55.4,33.6,55.3
	 M91.2,55.4c-0.7,1-1.7,1.6-3,1.9c-3,0.6-6.1-0.8-6.8-3.8c-0.7-2.9,1.2-6.4,4.2-7.2c1.2-0.3,2.5-0.2,3.4,0.2
	c0.3,0.1,0.4,0.3,0.4,0.4c0,0.1-0.2,0.2-0.6,0.1c-0.7-0.2-1.4-0.1-2.1,0c-2.5,0.6-3.8,3.1-3.3,5.6c0.5,2.5,3,4,5.4,3.4
	c0.8-0.2,1.5-0.6,2-1.1c0.4-0.4,0.5-0.4,0.6-0.3C91.5,54.7,91.5,54.9,91.2,55.4 M90.6,51.2c0.2,2.1-0.6,3.9-1.7,4
	c-1.2,0.1-2.3-1.5-2.5-3.6c-0.2-2.1,0.6-3.9,1.7-4C89.3,47.5,90.4,49.1,90.6,51.2 M103.4,48.3c-0.4-0.4-0.9-0.7-1.5-1
	c-0.6-0.3-1.2-0.6-1.8-0.9c-0.7-0.3-1.3-0.6-2-0.8c-0.3-0.1-0.7-0.3-1-0.4c-0.2-0.1-0.3-0.1-0.5-0.2c-0.1,0-0.2-0.1-0.3-0.2
	c0,0,0-0.1,0-0.1c0-0.2-0.1-0.5-0.2-0.7c0,0,0,0,0,0c-0.4-1.5-1.5-2.8-3-3.5c-1.6-0.7-3.5-0.6-5,0.4c-0.7,0.4-1.3,1-1.7,1.7
	c-0.2,0.4-0.4,0.8-0.6,1.2c0,0.1-0.1,0.2-0.1,0.3c1.8-0.2,3.9-0.1,5,0.2c0.1,0,0.2,0.1,0.2,0.1c-1.5,0-3.2,0.1-4.9,0.3
	c-29.2,3.8-61.3,28.6-59.5,38c0.5,2.4,4.5,5,14.3,5.9c3.4,0.3,8.9,0.1,11.9-0.6c0.7-0.2,1.2-0.4,1.7-0.4c0.4,0,0.8,0.1,0.9,0.5
	c0.1,0.4-0.2,0.8-0.7,0.9c-0.7,0.1-0.8,0-2.1,0.1C48.7,89.3,39,91.6,35,93.1c-1.8,0.7-2.9,1.7-2.7,2.9c0.2,1,1.4,1.8,4.9,2.4
	c4.7,0.9,11.9,2.6,13.9,8.6c0.9,2.7,0.3,3.4,0.1,5.1c0,0.4,0,0.8,0.1,1.1c0.4,1.4,1.9,2.3,3.4,1.8c1.4-0.4,2.2-1.9,1.8-3.4
	c-0.1-0.4-0.3-0.7-0.5-1c-0.9-1.1-2.3-2.1-2.8-4.3c-0.3-1.5,1.2-2.6,2.6-1.6c3.7,2.6,5,4.7,5.7,5.9c0.2,0.3,0.4,0.6,0.8,0.9
	c1.2,0.9,2.9,0.6,3.8-0.6c0.9-1.2,0.6-2.9-0.6-3.8c-0.3-0.2-0.7-0.4-1-0.5c-1.3-0.4-3.6-0.6-7.4-3.6c-1.6-1.2-1.2-2.6,0.1-2.9
	c1.5-0.3,3.7,0.2,5.2,0.7c0.4,0.1,0.7,0.2,1.1,0.2c1.5,0,2.7-1.3,2.6-2.8c0-1.5-1.3-2.7-2.8-2.6c-0.4,0-0.8,0.1-1.1,0.3
	c-2.7,1.2-4.2,2.4-8.7,2.4c-2.1,0-5.1-1-7.2-2c8.1-1.3,14.8-3.7,17.8-5.5c1.5-0.9,2.1-1.8,2-3.1c0-1-0.8-2.1-2.2-3.3
	c-5.4-4.6-13.3-7.3-20.2-7.5c-0.3,0-0.5-0.1-0.5-0.2c0-0.1,0.2-0.3,0.7-0.3c5-0.5,11.9,0.8,16.1,2.8c2.3-0.5,4.7-1.9,6.5-3.7
	c2.4-2.3,3.6-4.2,4.6-6.3c0.1-0.3,0.2-0.4,0.3-0.4c0.2,0,0.1,0.2,0.2,0.5c0,0.1,0,0.2,0,0.2c0.1,2.8-0.5,5.2-0.9,7.5
	c-0.2,1.2-0.1,2.1,0.2,2.8c0.5,1,1.5,1.3,2.8,1.2c4.7-0.3,10.8,1,14,2.9c2.2,1.3,2.2,2.1,3,3.4c0.2,0.3,0.4,0.5,0.7,0.7
	c1.1,0.7,2.6,0.4,3.3-0.7c0.7-1.1,0.4-2.6-0.8-3.3c-0.3-0.2-0.6-0.3-1-0.4c-1.3-0.2-2.8,0-4.4-1.3c-1.1-0.9-0.7-2.5,0.9-2.7
	c4.2-0.5,6.1,0.4,7.2,0.7c0.3,0.1,0.7,0.2,1,0.1c1.3-0.1,2.3-1.3,2.2-2.6c-0.1-1.3-1.3-2.3-2.6-2.2c-0.4,0-0.7,0.2-1,0.3
	c-1.1,0.5-2.6,1.5-7,1.8c-1.8,0.1-2.4-1.1-1.6-2c0.9-1.1,2.8-1.8,4-2.4c0.3-0.1,0.6-0.3,0.8-0.6c0.9-1,0.9-2.5,0-3.4
	c-0.9-0.9-2.5-0.9-3.4,0.1c-0.2,0.3-0.4,0.6-0.5,0.9c-0.5,1.1-1,2.8-2.3,4.1c-2.8,2.9-8.4,3.7-9.3,2.6c-1.6-1.9,3-10,5.2-12
	c11.5-3.6,17.7-8.8,20.8-11.2c1.4-1.1,1.9-2,1.9-3.1C105,50,104.4,49.1,103.4,48.3"/>
</svg>
